<?xml version="1.0" encoding="UTF-8"?>
<svg xmlns="http://www.w3.org/2000/svg" xmlns:xlink="http://www.w3.org/1999/xlink" width="1254" height="1254" viewBox="0 0 1254 1254">
<defs>
<clipPath id="clip-0">
<path clip-rule="nonzero" d="M 355 260 L 1017 260 L 1017 962 L 355 962 Z M 355 260 "/>
</clipPath>
<clipPath id="clip-1">
<path clip-rule="nonzero" d="M 356.484375 260.714844 L 357.035156 553.675781 L 358.007812 553.988281 C 403.300781 554.539062 448.699219 554.726562 494.210938 554.550781 C 495.644531 555.21875 496.597656 556.804688 497.070312 559.3125 C 499.539062 565.609375 503.898438 574.128906 508.09375 579.777344 C 515.554688 592.355469 522.058594 605.167969 527.613281 618.214844 L 545.992188 652.964844 C 547.152344 654.703125 547.960938 656.539062 548.425781 658.472656 L 598.476562 754.222656 C 600.09375 755.519531 600.765625 757.140625 598.363281 757.796875 C 574.949219 757.484375 551.828125 757.570312 529.003906 758.054688 C 507.09375 757.945312 485.429688 758.25 464 758.964844 C 442.457031 758.230469 420.789062 757.90625 399 757.992188 C 398.46875 757.269531 397.246094 757.167969 397 758 C 397.054688 712.058594 396.714844 666.394531 395.96875 621.007812 L 395.316406 620.171875 C 382.316406 620.394531 369.367188 620.125 356.46875 619.355469 L 355.535156 652.933594 C 355.757812 676.199219 356.234375 699.222656 356.96875 722 C 356.226562 746.539062 355.90625 771.207031 356 796 C 355.433594 796.320312 355.140625 796.996094 355.128906 798.027344 C 356.398438 797.839844 357.179688 798.636719 356.910156 799.894531 C 435.003906 800.058594 512.714844 799.722656 590.039062 798.886719 C 599.773438 799.082031 609.601562 799.121094 619.519531 799 L 621.320312 799.835938 L 704.757812 960.128906 L 707.09375 961.730469 C 722.164062 962.140625 737.214844 961.96875 752.242188 961.21875 L 752.273438 959.898438 L 733.199219 921.542969 L 624.746094 713.203125 L 557.140625 585.273438 L 531.273438 534.832031 L 520.203125 513.90625 L 519.519531 513.113281 C 478.769531 512.757812 437.996094 512.550781 397.210938 512.480469 L 396.484375 511.710938 L 396.507812 301.132812 L 397.242188 300.449219 L 583.484375 300.414062 C 603.730469 305.230469 621.601562 310.960938 637.003906 325.140625 C 653.371094 339.078125 663.863281 357.839844 669.824219 377.949219 C 671.691406 383.378906 672.738281 389 672.960938 394.808594 C 675.617188 448.207031 641.660156 495.167969 588.894531 509.734375 L 684.515625 678.5625 L 802.320312 883.976562 L 1014.445312 522.011719 L 1016.691406 516.371094 C 1000.710938 515.992188 984.738281 515.640625 968.773438 515.3125 L 803.09375 800.976562 L 692.898438 608.234375 L 651.554688 535.933594 C 649.238281 533.703125 647.945312 530.671875 646.992188 527.710938 C 665.953125 514.679688 681.84375 497.644531 693.265625 477.640625 C 719.535156 436.949219 721.816406 382.714844 698.476562 337.433594 C 677.988281 297.6875 638.269531 267.5 591.78125 260.960938 C 590.347656 260.332031 588.105469 260.03125 587.003906 260.992188 C 543.203125 260.566406 499.386719 260.355469 455.546875 260.355469 C 422.539062 260.355469 389.515625 260.472656 356.484375 260.714844 "/>
</clipPath>
<linearGradient id="linear-pattern-0" gradientUnits="userSpaceOnUse" x1="-0.00587221" y1="0" x2="1.275765" y2="0" gradientTransform="matrix(565.093506, 491.599792, -491.599792, 565.093506, 304.191956, 325.285156)">
<stop offset="0" stop-color="rgb(97.254944%, 97.254944%, 97.254944%)" stop-opacity="1"/>
<stop offset="0.0625" stop-color="rgb(97.254944%, 97.254944%, 97.254944%)" stop-opacity="1"/>
<stop offset="0.09375" stop-color="rgb(98.039246%, 97.254944%, 96.862793%)" stop-opacity="1"/>
<stop offset="0.125" stop-color="rgb(98.431396%, 97.254944%, 96.862793%)" stop-opacity="1"/>
<stop offset="0.15625" stop-color="rgb(98.431396%, 97.254944%, 96.862793%)" stop-opacity="1"/>
<stop offset="0.1875" stop-color="rgb(98.823547%, 97.254944%, 96.862793%)" stop-opacity="1"/>
<stop offset="0.21875" stop-color="rgb(98.823547%, 97.254944%, 96.470642%)" stop-opacity="1"/>
<stop offset="0.234375" stop-color="rgb(99.607849%, 97.254944%, 96.470642%)" stop-opacity="1"/>
<stop offset="0.242188" stop-color="rgb(99.607849%, 97.254944%, 96.470642%)" stop-opacity="1"/>
<stop offset="0.246094" stop-color="rgb(99.607849%, 97.254944%, 96.078491%)" stop-opacity="1"/>
<stop offset="0.25" stop-color="rgb(99.607849%, 96.862793%, 96.078491%)" stop-opacity="1"/>
<stop offset="0.253906" stop-color="rgb(99.215698%, 96.862793%, 95.68634%)" stop-opacity="1"/>
<stop offset="0.257812" stop-color="rgb(99.215698%, 96.470642%, 95.294189%)" stop-opacity="1"/>
<stop offset="0.261719" stop-color="rgb(99.215698%, 96.078491%, 94.902039%)" stop-opacity="1"/>
<stop offset="0.265625" stop-color="rgb(99.215698%, 96.078491%, 94.509888%)" stop-opacity="1"/>
<stop offset="0.269531" stop-color="rgb(98.823547%, 95.68634%, 94.117737%)" stop-opacity="1"/>
<stop offset="0.273438" stop-color="rgb(99.215698%, 95.294189%, 93.725586%)" stop-opacity="1"/>
<stop offset="0.277344" stop-color="rgb(99.215698%, 95.294189%, 93.333435%)" stop-opacity="1"/>
<stop offset="0.28125" stop-color="rgb(99.215698%, 94.902039%, 92.941284%)" stop-opacity="1"/>
<stop offset="0.285156" stop-color="rgb(98.823547%, 94.509888%, 92.549133%)" stop-opacity="1"/>
<stop offset="0.289062" stop-color="rgb(98.823547%, 94.509888%, 92.156982%)" stop-opacity="1"/>
<stop offset="0.292969" stop-color="rgb(99.215698%, 94.117737%, 91.764832%)" stop-opacity="1"/>
<stop offset="0.296875" stop-color="rgb(99.215698%, 93.725586%, 91.372681%)" stop-opacity="1"/>
<stop offset="0.300781" stop-color="rgb(98.823547%, 93.725586%, 90.98053%)" stop-opacity="1"/>
<stop offset="0.304688" stop-color="rgb(98.823547%, 93.725586%, 90.588379%)" stop-opacity="1"/>
<stop offset="0.308594" stop-color="rgb(98.823547%, 93.333435%, 90.196228%)" stop-opacity="1"/>
<stop offset="0.3125" stop-color="rgb(98.823547%, 93.333435%, 89.804077%)" stop-opacity="1"/>
<stop offset="0.316406" stop-color="rgb(98.431396%, 92.941284%, 89.411926%)" stop-opacity="1"/>
<stop offset="0.320312" stop-color="rgb(98.823547%, 92.549133%, 89.019775%)" stop-opacity="1"/>
<stop offset="0.324219" stop-color="rgb(98.823547%, 92.549133%, 88.627625%)" stop-opacity="1"/>
<stop offset="0.328125" stop-color="rgb(98.823547%, 92.156982%, 88.235474%)" stop-opacity="1"/>
<stop offset="0.332031" stop-color="rgb(98.431396%, 91.764832%, 87.843323%)" stop-opacity="1"/>
<stop offset="0.335938" stop-color="rgb(98.431396%, 91.764832%, 87.451172%)" stop-opacity="1"/>
<stop offset="0.339844" stop-color="rgb(98.431396%, 91.372681%, 87.059021%)" stop-opacity="1"/>
<stop offset="0.34375" stop-color="rgb(98.823547%, 90.98053%, 87.059021%)" stop-opacity="1"/>
<stop offset="0.347656" stop-color="rgb(98.039246%, 90.98053%, 86.274719%)" stop-opacity="1"/>
<stop offset="0.351562" stop-color="rgb(98.431396%, 90.588379%, 86.274719%)" stop-opacity="1"/>
<stop offset="0.355469" stop-color="rgb(98.431396%, 90.196228%, 85.882568%)" stop-opacity="1"/>
<stop offset="0.359375" stop-color="rgb(98.431396%, 90.196228%, 85.098267%)" stop-opacity="1"/>
<stop offset="0.363281" stop-color="rgb(98.039246%, 89.804077%, 85.098267%)" stop-opacity="1"/>
<stop offset="0.367188" stop-color="rgb(98.431396%, 89.411926%, 84.706116%)" stop-opacity="1"/>
<stop offset="0.371094" stop-color="rgb(98.431396%, 89.411926%, 84.313965%)" stop-opacity="1"/>
<stop offset="0.375" stop-color="rgb(98.431396%, 89.019775%, 83.921814%)" stop-opacity="1"/>
<stop offset="0.378906" stop-color="rgb(98.039246%, 88.627625%, 83.529663%)" stop-opacity="1"/>
<stop offset="0.382812" stop-color="rgb(98.039246%, 88.627625%, 83.137512%)" stop-opacity="1"/>
<stop offset="0.386719" stop-color="rgb(98.039246%, 88.235474%, 82.745361%)" stop-opacity="1"/>
<stop offset="0.390625" stop-color="rgb(98.431396%, 87.843323%, 82.35321%)" stop-opacity="1"/>
<stop offset="0.394531" stop-color="rgb(97.647095%, 87.843323%, 81.96106%)" stop-opacity="1"/>
<stop offset="0.398437" stop-color="rgb(98.039246%, 87.451172%, 81.568909%)" stop-opacity="1"/>
<stop offset="0.402344" stop-color="rgb(98.039246%, 87.059021%, 80.784607%)" stop-opacity="1"/>
<stop offset="0.40625" stop-color="rgb(97.647095%, 86.66687%, 80.392456%)" stop-opacity="1"/>
<stop offset="0.410156" stop-color="rgb(98.039246%, 85.882568%, 79.608154%)" stop-opacity="1"/>
<stop offset="0.414062" stop-color="rgb(97.647095%, 85.490417%, 78.823853%)" stop-opacity="1"/>
<stop offset="0.417969" stop-color="rgb(97.647095%, 85.098267%, 78.039551%)" stop-opacity="1"/>
<stop offset="0.421875" stop-color="rgb(97.254944%, 84.706116%, 77.255249%)" stop-opacity="1"/>
<stop offset="0.425781" stop-color="rgb(97.647095%, 83.921814%, 76.470947%)" stop-opacity="1"/>
<stop offset="0.429688" stop-color="rgb(97.254944%, 83.529663%, 75.294495%)" stop-opacity="1"/>
<stop offset="0.433594" stop-color="rgb(97.254944%, 83.137512%, 74.510193%)" stop-opacity="1"/>
<stop offset="0.4375" stop-color="rgb(96.862793%, 82.35321%, 73.725891%)" stop-opacity="1"/>
<stop offset="0.441406" stop-color="rgb(97.254944%, 81.96106%, 72.941589%)" stop-opacity="1"/>
<stop offset="0.445312" stop-color="rgb(96.862793%, 81.568909%, 72.157288%)" stop-opacity="1"/>
<stop offset="0.449219" stop-color="rgb(96.862793%, 80.784607%, 71.372986%)" stop-opacity="1"/>
<stop offset="0.453125" stop-color="rgb(96.470642%, 80.392456%, 70.588684%)" stop-opacity="1"/>
<stop offset="0.457031" stop-color="rgb(96.862793%, 80.000305%, 69.804382%)" stop-opacity="1"/>
<stop offset="0.460938" stop-color="rgb(96.470642%, 79.608154%, 69.020081%)" stop-opacity="1"/>
<stop offset="0.464844" stop-color="rgb(96.470642%, 78.823853%, 68.235779%)" stop-opacity="1"/>
<stop offset="0.46875" stop-color="rgb(96.078491%, 78.431702%, 67.451477%)" stop-opacity="1"/>
<stop offset="0.472656" stop-color="rgb(96.470642%, 78.039551%, 67.059326%)" stop-opacity="1"/>
<stop offset="0.476563" stop-color="rgb(96.078491%, 77.255249%, 66.275024%)" stop-opacity="1"/>
<stop offset="0.480469" stop-color="rgb(96.078491%, 76.863098%, 65.490723%)" stop-opacity="1"/>
<stop offset="0.484375" stop-color="rgb(95.68634%, 76.470947%, 64.706421%)" stop-opacity="1"/>
<stop offset="0.488281" stop-color="rgb(96.078491%, 76.078796%, 63.922119%)" stop-opacity="1"/>
<stop offset="0.492187" stop-color="rgb(95.68634%, 75.294495%, 63.137817%)" stop-opacity="1"/>
<stop offset="0.496094" stop-color="rgb(95.68634%, 74.902344%, 62.353516%)" stop-opacity="1"/>
<stop offset="0.5" stop-color="rgb(95.294189%, 74.510193%, 61.569214%)" stop-opacity="1"/>
<stop offset="0.503906" stop-color="rgb(95.68634%, 73.725891%, 60.784912%)" stop-opacity="1"/>
<stop offset="0.507812" stop-color="rgb(95.294189%, 73.33374%, 60.00061%)" stop-opacity="1"/>
<stop offset="0.511719" stop-color="rgb(95.294189%, 72.941589%, 59.216309%)" stop-opacity="1"/>
<stop offset="0.515625" stop-color="rgb(94.902039%, 72.157288%, 58.432007%)" stop-opacity="1"/>
<stop offset="0.519531" stop-color="rgb(95.294189%, 71.765137%, 57.647705%)" stop-opacity="1"/>
<stop offset="0.523437" stop-color="rgb(94.902039%, 71.372986%, 56.863403%)" stop-opacity="1"/>
<stop offset="0.527344" stop-color="rgb(94.902039%, 70.980835%, 55.686951%)" stop-opacity="1"/>
<stop offset="0.53125" stop-color="rgb(94.509888%, 70.196533%, 54.902649%)" stop-opacity="1"/>
<stop offset="0.535156" stop-color="rgb(94.509888%, 70.196533%, 54.118347%)" stop-opacity="1"/>
<stop offset="0.539062" stop-color="rgb(94.117737%, 69.804382%, 53.726196%)" stop-opacity="1"/>
<stop offset="0.542969" stop-color="rgb(94.509888%, 69.020081%, 52.941895%)" stop-opacity="1"/>
<stop offset="0.546875" stop-color="rgb(94.117737%, 68.62793%, 52.157593%)" stop-opacity="1"/>
<stop offset="0.550781" stop-color="rgb(94.117737%, 68.235779%, 51.373291%)" stop-opacity="1"/>
<stop offset="0.554688" stop-color="rgb(94.117737%, 67.451477%, 50.588989%)" stop-opacity="1"/>
<stop offset="0.558594" stop-color="rgb(94.117737%, 67.059326%, 49.803162%)" stop-opacity="1"/>
<stop offset="0.5625" stop-color="rgb(94.117737%, 66.667175%, 49.01886%)" stop-opacity="1"/>
<stop offset="0.566406" stop-color="rgb(93.725586%, 66.275024%, 48.234558%)" stop-opacity="1"/>
<stop offset="0.570312" stop-color="rgb(94.117737%, 65.490723%, 47.450256%)" stop-opacity="1"/>
<stop offset="0.574219" stop-color="rgb(93.725586%, 65.098572%, 46.273804%)" stop-opacity="1"/>
<stop offset="0.578125" stop-color="rgb(93.725586%, 64.31427%, 45.489502%)" stop-opacity="1"/>
<stop offset="0.582031" stop-color="rgb(93.333435%, 63.529968%, 44.7052%)" stop-opacity="1"/>
<stop offset="0.585938" stop-color="rgb(93.333435%, 63.137817%, 43.920898%)" stop-opacity="1"/>
<stop offset="0.589844" stop-color="rgb(92.941284%, 62.745667%, 43.136597%)" stop-opacity="1"/>
<stop offset="0.59375" stop-color="rgb(93.333435%, 62.353516%, 42.352295%)" stop-opacity="1"/>
<stop offset="0.597656" stop-color="rgb(92.941284%, 61.961365%, 41.960144%)" stop-opacity="1"/>
<stop offset="0.601562" stop-color="rgb(92.941284%, 61.569214%, 41.567993%)" stop-opacity="1"/>
<stop offset="0.609375" stop-color="rgb(92.941284%, 61.569214%, 41.567993%)" stop-opacity="1"/>
<stop offset="0.625" stop-color="rgb(92.941284%, 61.569214%, 41.567993%)" stop-opacity="1"/>
<stop offset="0.6875" stop-color="rgb(92.941284%, 61.177063%, 41.175842%)" stop-opacity="1"/>
<stop offset="0.75" stop-color="rgb(92.549133%, 61.177063%, 41.175842%)" stop-opacity="1"/>
<stop offset="1" stop-color="rgb(92.549133%, 60.784912%, 40.783691%)" stop-opacity="1"/>
</linearGradient>
</defs>
<path fill-rule="nonzero" fill="rgb(92.549133%, 60.784912%, 40.783691%)" fill-opacity="1" d="M 303.953125 1066.015625 L 303.625 1051.125 L 265.445312 1051.132812 C 264.691406 1056.242188 264.699219 1060.777344 265.4375 1065.847656 Z M 300.972656 1042.027344 L 300.953125 1027.945312 L 265.464844 1028.167969 C 264.675781 1032.875 264.679688 1037.132812 265.460938 1041.832031 Z M 310.113281 1044.746094 C 315.605469 1053.449219 314.421875 1074.457031 305.742188 1074.550781 L 256.003906 1075.089844 L 255.988281 1018.988281 L 300.027344 1018.976562 C 305.1875 1018.617188 309.03125 1021.738281 310.554688 1026.613281 C 311.285156 1032.617188 311.492188 1038.691406 310.113281 1044.746094 "/>
<path fill-rule="nonzero" fill="rgb(92.549133%, 60.784912%, 40.783691%)" fill-opacity="1" d="M 991.050781 1074.984375 L 948.167969 1074.632812 C 941.722656 1074.578125 939.488281 1065.617188 941.511719 1061.035156 L 949.835938 1061.03125 L 950.207031 1066.027344 L 987.957031 1066.011719 L 987.957031 1052.058594 L 951.210938 1051.742188 C 946.941406 1051.703125 941.316406 1048.15625 941.304688 1043.964844 L 941.253906 1026.019531 C 941.246094 1023.371094 945.125 1019.152344 948.109375 1019.167969 L 989.929688 1019.359375 C 995.542969 1019.386719 998.558594 1027.777344 997.722656 1032.183594 C 994.410156 1033.652344 991.515625 1033.257812 988.589844 1032.542969 L 987.667969 1027.984375 L 950.042969 1027.988281 L 950.058594 1041.910156 L 987.816406 1042.328125 C 995.328125 1042.410156 998.933594 1051.132812 997.855469 1057.863281 C 998.71875 1064.761719 997.363281 1070.898438 991.050781 1074.984375 "/>
<path fill-rule="nonzero" fill="rgb(92.549133%, 60.784912%, 40.783691%)" fill-opacity="1" d="M 440.832031 1045.792969 L 440.671875 1028.152344 L 402.023438 1027.957031 L 402.019531 1046.058594 Z M 450.210938 1074.796875 L 438.929688 1075.039062 L 422.054688 1054.9375 L 402.011719 1054.996094 L 401.996094 1074.921875 L 392.984375 1074.890625 L 392.992188 1018.933594 L 441.824219 1019.332031 C 447.089844 1019.375 450.363281 1026.382812 450 1030.738281 L 450.066406 1043.019531 C 450.089844 1047.273438 448.390625 1050.542969 445.988281 1052.679688 C 442.558594 1055.734375 438.667969 1055.089844 433.738281 1055.011719 Z M 450.210938 1074.796875 "/>
<path fill-rule="nonzero" fill="rgb(92.549133%, 60.784912%, 40.783691%)" fill-opacity="1" d="M 572.207031 1051.964844 L 538.035156 1052.003906 L 538.046875 1066.011719 L 580.894531 1065.988281 L 580.882812 1075.015625 L 528.988281 1075.007812 L 528.988281 1018.992188 L 580.882812 1018.984375 L 580.894531 1028.011719 L 538.046875 1027.988281 L 538.039062 1042 L 571.992188 1042.03125 C 573.554688 1044.921875 573.589844 1048.324219 572.207031 1051.964844 "/>
<path fill-rule="nonzero" fill="rgb(92.549133%, 60.784912%, 40.783691%)" fill-opacity="1" d="M 853.207031 1051.964844 L 819.035156 1052.003906 L 819.046875 1066.011719 L 861.894531 1065.988281 L 861.882812 1075.015625 L 809.988281 1075.007812 L 809.988281 1018.992188 L 861.882812 1018.984375 L 861.894531 1028.011719 L 819.046875 1027.988281 L 819.039062 1042 L 852.992188 1042.03125 C 854.554688 1044.921875 854.589844 1048.324219 853.207031 1051.964844 "/>
<path fill-rule="nonzero" fill="rgb(92.549133%, 60.784912%, 40.783691%)" fill-opacity="1" d="M 721.546875 1019.089844 L 732.109375 1019.195312 L 700.394531 1074.394531 C 697.117188 1075.480469 693.90625 1075.394531 690.496094 1074.398438 L 658.578125 1019.292969 L 669.011719 1019.140625 L 695.445312 1064.96875 Z M 721.546875 1019.089844 "/>
<path fill-rule="nonzero" fill="rgb(40.391541%, 40.783691%, 40.391541%)" fill-opacity="1" d="M 591.785156 260.960938 L 587 260.992188 L 587.015625 260.019531 C 588.730469 260.019531 590.875 259.40625 591.785156 260.960938 "/>
<path fill-rule="nonzero" fill="rgb(97.647095%, 84.706116%, 78.039551%)" fill-opacity="1" d="M 651.554688 535.933594 C 648.183594 534.792969 647.003906 530.367188 646.078125 527.175781 C 665.789062 514.460938 680.539062 497.347656 693.265625 477.640625 C 682.785156 497.96875 666.835938 514.9375 647.746094 527.902344 Z M 651.554688 535.933594 "/>
<path fill-rule="nonzero" fill="rgb(92.549133%, 60.784912%, 40.783691%)" fill-opacity="1" d="M 1014.445312 522.011719 C 1013.628906 520.34375 1014.902344 518.59375 1015.648438 517.058594 L 993.605469 516.515625 L 968.773438 515.3125 L 1017.859375 515.246094 C 1017.070312 518.175781 1015.839844 520.265625 1014.445312 522.011719 "/>
<g clip-path="url(#clip-0)">
<g clip-path="url(#clip-1)">
<path fill-rule="nonzero" fill="url(#linear-pattern-0)" d="M 640.117188 -67.5625 L 7.453125 659.683594 L 731.699219 1289.734375 L 1364.363281 562.488281 Z M 640.117188 -67.5625 "/>
</g>
</g>
<path fill-rule="nonzero" fill="rgb(99.215698%, 98.823547%, 99.215698%)" fill-opacity="1" d="M 587.015625 260.019531 C 587.886719 260.308594 587.867188 260.632812 587 260.992188 L 356.988281 261.03125 L 358.003906 553.988281 C 358.191406 554.4375 357.542969 554.714844 356.066406 554.8125 L 355.976562 260.078125 C 361.105469 257.894531 365.71875 259.910156 371.125 259.910156 Z M 587.015625 260.019531 "/>
<path fill-rule="nonzero" fill="rgb(98.823547%, 95.68634%, 94.117737%)" fill-opacity="1" d="M 583.484375 300.414062 L 397.003906 301.003906 L 396.984375 512.003906 L 518.867188 511.996094 C 519.851562 511.996094 520.253906 513.796875 520.207031 513.90625 L 395.984375 512.949219 L 396.011719 299.894531 Z M 583.484375 300.414062 "/>
<path fill-rule="nonzero" fill="rgb(94.509888%, 70.196533%, 54.510498%)" fill-opacity="1" d="M 590.039062 798.886719 C 591.976562 798.78125 591.949219 799.546875 589.996094 800.019531 L 356.910156 799.894531 Z M 590.039062 798.886719 "/>
<path fill-rule="nonzero" fill="rgb(94.509888%, 70.196533%, 54.510498%)" fill-opacity="1" d="M 529.003906 758.054688 C 507.21875 758.453125 485.550781 758.4375 464 758.007812 C 442.566406 758.417969 420.902344 758.414062 399 757.992188 L 397 758 L 397.03125 756.992188 L 598.644531 757.003906 C 599.304688 755.660156 599.089844 754.777344 598.476562 754.222656 C 599.960938 753.992188 600.839844 755 601.050781 755.867188 C 601.292969 756.847656 600.316406 758.597656 598.429688 758.589844 L 575.46875 758.480469 Z M 529.003906 758.054688 "/>
<path fill-rule="nonzero" fill="rgb(98.431396%, 90.588379%, 86.274719%)" fill-opacity="1" d="M 497.070312 559.3125 C 496.027344 558.140625 495.441406 556.894531 494.542969 555.042969 L 356.066406 554.8125 L 358.003906 553.988281 L 494.90625 554.054688 C 497.359375 554.058594 496.558594 558.011719 497.070312 559.3125 "/>
<path fill-rule="nonzero" fill="rgb(30.979919%, 23.921204%, 20.391846%)" fill-opacity="1" d="M 356 722 C 356.421875 746.425781 356.421875 771.09375 356 796 L 355.128906 798.027344 L 355.996094 654 C 356.265625 676.785156 356.265625 699.453125 356 722 "/>
<path fill-rule="nonzero" fill="rgb(97.254944%, 85.882568%, 79.608154%)" fill-opacity="1" d="M 397.03125 756.992188 L 397 758 L 395.96875 621.007812 C 394.078125 620.1875 395.074219 619.835938 396.851562 619.347656 Z M 397.03125 756.992188 "/>
<path fill-rule="nonzero" fill="rgb(92.549133%, 60.784912%, 40.783691%)" fill-opacity="1" d="M 752.273438 959.898438 C 752.578125 960.300781 752.976562 960.917969 752.992188 961.414062 C 753 961.746094 752.042969 963.007812 751.628906 963.007812 L 708.183594 962.902344 C 706.011719 962.898438 705.382812 961.332031 704.757812 960.128906 C 706.753906 960.480469 708.332031 961.382812 710.421875 961.347656 Z M 752.273438 959.898438 "/>
<path fill-rule="nonzero" fill="rgb(98.431396%, 90.588379%, 86.274719%)" fill-opacity="1" d="M 557.140625 585.273438 L 531.273438 534.832031 Z M 557.140625 585.273438 "/>
<path fill-rule="nonzero" fill="rgb(98.823547%, 93.725586%, 91.764832%)" fill-opacity="1" d="M 396.851562 619.347656 L 395.96875 621.007812 L 374.367188 620.601562 C 368.621094 620.5 362.375 622.378906 356.46875 619.355469 Z M 396.851562 619.347656 "/>
<path fill-rule="nonzero" fill="rgb(98.431396%, 89.411926%, 84.706116%)" fill-opacity="1" d="M 356.96875 722 C 356.695312 722.875 356.371094 722.859375 356 722 L 355.996094 654 C 356.125 653.761719 356.257812 653.082031 355.535156 652.933594 Z M 356.96875 722 "/>
<path fill-rule="nonzero" fill="rgb(98.431396%, 90.588379%, 86.274719%)" fill-opacity="1" d="M 527.613281 618.214844 L 508.09375 579.777344 C 514.140625 587.917969 517.792969 597.089844 522.714844 606.339844 C 524.804688 610.265625 527.890625 613.710938 527.613281 618.214844 "/>
<path fill-rule="nonzero" fill="rgb(93.333435%, 65.490723%, 47.450256%)" fill-opacity="1" d="M 621.320312 799.835938 L 589.996094 800.019531 L 590.039062 798.886719 C 598.785156 798.882812 607.566406 796.957031 617.117188 798.214844 L 620.242188 798.132812 C 620.808594 798.117188 621.007812 799.238281 621.320312 799.835938 "/>
<path fill-rule="nonzero" fill="rgb(98.039246%, 89.804077%, 85.098267%)" fill-opacity="1" d="M 672.960938 394.808594 L 669.824219 377.949219 C 673.410156 382.855469 672.691406 389.367188 672.960938 394.808594 "/>
<path fill-rule="nonzero" fill="rgb(96.862793%, 80.784607%, 71.765137%)" fill-opacity="1" d="M 548.425781 658.472656 C 547.078125 657.097656 546.175781 655.050781 545.992188 652.964844 C 546.710938 654.320312 550.195312 655.652344 548.425781 658.472656 "/>
<path fill-rule="nonzero" fill="rgb(97.254944%, 85.882568%, 79.608154%)" fill-opacity="1" d="M 356 796 L 356 722 L 356.96875 722 Z M 356 796 "/>
<path fill-rule="nonzero" fill="rgb(97.254944%, 85.882568%, 79.608154%)" fill-opacity="1" d="M 464 758.007812 C 464.882812 758.21875 464.855469 758.542969 464 758.964844 L 399 757.992188 Z M 464 758.007812 "/>
<path fill-rule="nonzero" fill="rgb(96.078491%, 78.823853%, 69.020081%)" fill-opacity="1" d="M 529.003906 758.054688 L 464 758.964844 L 464 758.007812 Z M 529.003906 758.054688 "/>
</svg>
